<mxfile host="app.diagrams.net" modified="2023-06-21T20:48:49.506Z" agent="Mozilla/5.0 (Windows NT 10.0; Win64; x64) AppleWebKit/537.36 (KHTML, like Gecko) Chrome/114.0.0.0 Safari/537.36" etag="VIZL1aE_m7Ew1cQ0eTcU" version="21.2.9" type="device">
  <diagram name="Page-1" id="2YBvvXClWsGukQMizWep">
    <mxGraphModel dx="1889" dy="560" grid="1" gridSize="10" guides="1" tooltips="1" connect="1" arrows="1" fold="1" page="1" pageScale="1" pageWidth="827" pageHeight="1169" math="0" shadow="0">
      <root>
        <mxCell id="0" />
        <mxCell id="1" parent="0" />
        <mxCell id="11" value="" style="rounded=0;whiteSpace=wrap;html=1;fontSize=11;" parent="1" vertex="1">
          <mxGeometry x="-250" y="165" width="1071" height="648" as="geometry" />
        </mxCell>
        <mxCell id="15" value="" style="rounded=0;whiteSpace=wrap;html=1;fontSize=11;" parent="1" vertex="1">
          <mxGeometry x="-245" y="193" width="1061" height="572" as="geometry" />
        </mxCell>
        <mxCell id="30" value="" style="rounded=0;whiteSpace=wrap;html=1;fontSize=11;" parent="1" vertex="1">
          <mxGeometry x="-183" y="247" width="993" height="473" as="geometry" />
        </mxCell>
        <mxCell id="aM9ryv3xv72pqoxQDRHE-1" value="DeliveryManager" style="shape=umlLifeline;perimeter=lifelinePerimeter;whiteSpace=wrap;html=1;container=0;dropTarget=0;collapsible=0;recursiveResize=0;outlineConnect=0;portConstraint=eastwest;newEdgeStyle={&quot;edgeStyle&quot;:&quot;elbowEdgeStyle&quot;,&quot;elbow&quot;:&quot;vertical&quot;,&quot;curved&quot;:0,&quot;rounded&quot;:0};" parent="1" vertex="1">
          <mxGeometry x="-827" y="40" width="100" height="780" as="geometry" />
        </mxCell>
        <mxCell id="39" value="" style="rounded=0;whiteSpace=wrap;html=1;fontSize=11;" parent="1" vertex="1">
          <mxGeometry x="47" y="250" width="758" height="430" as="geometry" />
        </mxCell>
        <mxCell id="aM9ryv3xv72pqoxQDRHE-5" value="&lt;font style=&quot;font-size: 10px;&quot;&gt;SystemFacade&lt;/font&gt;" style="shape=umlLifeline;perimeter=lifelinePerimeter;whiteSpace=wrap;html=1;container=0;dropTarget=0;collapsible=0;recursiveResize=0;outlineConnect=0;portConstraint=eastwest;newEdgeStyle={&quot;edgeStyle&quot;:&quot;elbowEdgeStyle&quot;,&quot;elbow&quot;:&quot;vertical&quot;,&quot;curved&quot;:0,&quot;rounded&quot;:0};" parent="1" vertex="1">
          <mxGeometry x="-610" y="40" width="70" height="840" as="geometry" />
        </mxCell>
        <mxCell id="aM9ryv3xv72pqoxQDRHE-6" value="" style="html=1;points=[];perimeter=orthogonalPerimeter;outlineConnect=0;targetShapes=umlLifeline;portConstraint=eastwest;newEdgeStyle={&quot;edgeStyle&quot;:&quot;elbowEdgeStyle&quot;,&quot;elbow&quot;:&quot;vertical&quot;,&quot;curved&quot;:0,&quot;rounded&quot;:0};" parent="aM9ryv3xv72pqoxQDRHE-5" vertex="1">
          <mxGeometry x="30" y="60" width="10" height="740" as="geometry" />
        </mxCell>
        <mxCell id="i9NzCaEgUlGq0UPtWMC--25" value="&lt;font style=&quot;font-size: 9px;&quot;&gt;DeliveryService&lt;/font&gt;" style="shape=umlLifeline;perimeter=lifelinePerimeter;whiteSpace=wrap;html=1;container=0;dropTarget=0;collapsible=0;recursiveResize=0;outlineConnect=0;portConstraint=eastwest;newEdgeStyle={&quot;edgeStyle&quot;:&quot;elbowEdgeStyle&quot;,&quot;elbow&quot;:&quot;vertical&quot;,&quot;curved&quot;:0,&quot;rounded&quot;:0};" parent="1" vertex="1">
          <mxGeometry x="-380" y="40" width="70" height="840" as="geometry" />
        </mxCell>
        <mxCell id="i9NzCaEgUlGq0UPtWMC--26" value="" style="html=1;points=[];perimeter=orthogonalPerimeter;outlineConnect=0;targetShapes=umlLifeline;portConstraint=eastwest;newEdgeStyle={&quot;edgeStyle&quot;:&quot;elbowEdgeStyle&quot;,&quot;elbow&quot;:&quot;vertical&quot;,&quot;curved&quot;:0,&quot;rounded&quot;:0};" parent="i9NzCaEgUlGq0UPtWMC--25" vertex="1">
          <mxGeometry x="30" y="69.5" width="10" height="720.5" as="geometry" />
        </mxCell>
        <mxCell id="i9NzCaEgUlGq0UPtWMC--27" value="&lt;font style=&quot;font-size: 10px;&quot;&gt;DeliveryController&lt;/font&gt;" style="shape=umlLifeline;perimeter=lifelinePerimeter;whiteSpace=wrap;html=1;container=0;dropTarget=0;collapsible=0;recursiveResize=0;outlineConnect=0;portConstraint=eastwest;newEdgeStyle={&quot;edgeStyle&quot;:&quot;elbowEdgeStyle&quot;,&quot;elbow&quot;:&quot;vertical&quot;,&quot;curved&quot;:0,&quot;rounded&quot;:0};" parent="1" vertex="1">
          <mxGeometry x="-160" y="40" width="80" height="840" as="geometry" />
        </mxCell>
        <mxCell id="i9NzCaEgUlGq0UPtWMC--28" value="" style="html=1;points=[];perimeter=orthogonalPerimeter;outlineConnect=0;targetShapes=umlLifeline;portConstraint=eastwest;newEdgeStyle={&quot;edgeStyle&quot;:&quot;elbowEdgeStyle&quot;,&quot;elbow&quot;:&quot;vertical&quot;,&quot;curved&quot;:0,&quot;rounded&quot;:0};" parent="i9NzCaEgUlGq0UPtWMC--27" vertex="1">
          <mxGeometry x="35" y="89.5" width="10" height="673.5" as="geometry" />
        </mxCell>
        <mxCell id="i9NzCaEgUlGq0UPtWMC--29" value="&lt;font style=&quot;font-size: 8px;&quot;&gt;ResourceController&lt;/font&gt;" style="shape=umlLifeline;perimeter=lifelinePerimeter;whiteSpace=wrap;html=1;container=0;dropTarget=0;collapsible=0;recursiveResize=0;outlineConnect=0;portConstraint=eastwest;newEdgeStyle={&quot;edgeStyle&quot;:&quot;elbowEdgeStyle&quot;,&quot;elbow&quot;:&quot;vertical&quot;,&quot;curved&quot;:0,&quot;rounded&quot;:0};" parent="1" vertex="1">
          <mxGeometry x="48" y="40" width="80" height="840" as="geometry" />
        </mxCell>
        <mxCell id="i9NzCaEgUlGq0UPtWMC--33" value="Delivery" style="shape=umlLifeline;perimeter=lifelinePerimeter;whiteSpace=wrap;html=1;container=0;dropTarget=0;collapsible=0;recursiveResize=0;outlineConnect=0;portConstraint=eastwest;newEdgeStyle={&quot;edgeStyle&quot;:&quot;elbowEdgeStyle&quot;,&quot;elbow&quot;:&quot;vertical&quot;,&quot;curved&quot;:0,&quot;rounded&quot;:0};" parent="1" vertex="1">
          <mxGeometry x="150" y="40" width="70" height="840" as="geometry" />
        </mxCell>
        <mxCell id="i9NzCaEgUlGq0UPtWMC--66" value="" style="html=1;points=[];perimeter=orthogonalPerimeter;outlineConnect=0;targetShapes=umlLifeline;portConstraint=eastwest;newEdgeStyle={&quot;edgeStyle&quot;:&quot;elbowEdgeStyle&quot;,&quot;elbow&quot;:&quot;vertical&quot;,&quot;curved&quot;:0,&quot;rounded&quot;:0};" parent="i9NzCaEgUlGq0UPtWMC--33" vertex="1">
          <mxGeometry x="30" y="229" width="10" height="401" as="geometry" />
        </mxCell>
        <mxCell id="i9NzCaEgUlGq0UPtWMC--35" value="Stop" style="shape=umlLifeline;perimeter=lifelinePerimeter;whiteSpace=wrap;html=1;container=0;dropTarget=0;collapsible=0;recursiveResize=0;outlineConnect=0;portConstraint=eastwest;newEdgeStyle={&quot;edgeStyle&quot;:&quot;elbowEdgeStyle&quot;,&quot;elbow&quot;:&quot;vertical&quot;,&quot;curved&quot;:0,&quot;rounded&quot;:0};" parent="1" vertex="1">
          <mxGeometry x="454" y="281" width="70" height="599" as="geometry" />
        </mxCell>
        <mxCell id="i9NzCaEgUlGq0UPtWMC--46" value="&lt;font style=&quot;font-size: 11px;&quot;&gt;1.1.1.2:&lt;br&gt;getSite(address)&lt;/font&gt;" style="text;html=1;align=center;verticalAlign=middle;whiteSpace=wrap;rounded=0;" parent="1" vertex="1">
          <mxGeometry x="-127" y="180" width="110" height="25" as="geometry" />
        </mxCell>
        <mxCell id="i9NzCaEgUlGq0UPtWMC--78" value="" style="endArrow=classic;html=1;rounded=0;" parent="1" source="i9NzCaEgUlGq0UPtWMC--28" edge="1">
          <mxGeometry width="50" height="50" relative="1" as="geometry">
            <mxPoint x="-20" y="190" as="sourcePoint" />
            <mxPoint x="-68" y="223" as="targetPoint" />
            <Array as="points">
              <mxPoint x="-88" y="223" />
            </Array>
          </mxGeometry>
        </mxCell>
        <mxCell id="i9NzCaEgUlGq0UPtWMC--83" value="" style="endArrow=open;html=1;rounded=0;horizontal=1;dashed=1;dashPattern=8 8;endFill=0;" parent="1" edge="1">
          <mxGeometry width="50" height="50" relative="1" as="geometry">
            <mxPoint x="83" y="236" as="sourcePoint" />
            <mxPoint x="4" y="236" as="targetPoint" />
            <Array as="points">
              <mxPoint x="50" y="236" />
              <mxPoint x="35" y="236" />
            </Array>
          </mxGeometry>
        </mxCell>
        <mxCell id="Dja3WeZD6JRYeBqH-6Vj-1" value="" style="endArrow=open;html=1;rounded=0;horizontal=1;dashed=1;dashPattern=8 8;endFill=0;" parent="1" edge="1">
          <mxGeometry width="50" height="50" relative="1" as="geometry">
            <mxPoint x="-125" y="617" as="sourcePoint" />
            <mxPoint x="-340" y="617" as="targetPoint" />
            <Array as="points">
              <mxPoint x="-180" y="617" />
            </Array>
          </mxGeometry>
        </mxCell>
        <mxCell id="Dja3WeZD6JRYeBqH-6Vj-3" value="" style="endArrow=open;html=1;rounded=0;horizontal=1;dashed=1;dashPattern=8 8;endFill=0;" parent="1" edge="1">
          <mxGeometry width="50" height="50" relative="1" as="geometry">
            <mxPoint x="-350" y="828.9999999999998" as="sourcePoint" />
            <mxPoint x="-570" y="828.9999999999998" as="targetPoint" />
            <Array as="points">
              <mxPoint x="-400" y="829" />
            </Array>
          </mxGeometry>
        </mxCell>
        <mxCell id="Dja3WeZD6JRYeBqH-6Vj-6" value="StopDAO" style="shape=umlLifeline;perimeter=lifelinePerimeter;whiteSpace=wrap;html=1;container=0;dropTarget=0;collapsible=0;recursiveResize=0;outlineConnect=0;portConstraint=eastwest;newEdgeStyle={&quot;edgeStyle&quot;:&quot;elbowEdgeStyle&quot;,&quot;elbow&quot;:&quot;vertical&quot;,&quot;curved&quot;:0,&quot;rounded&quot;:0};" parent="1" vertex="1">
          <mxGeometry x="679" y="40" width="70" height="840" as="geometry" />
        </mxCell>
        <mxCell id="Dja3WeZD6JRYeBqH-6Vj-10" value="" style="endArrow=classic;html=1;rounded=0;startArrow=none;" parent="1" source="i9NzCaEgUlGq0UPtWMC--28" edge="1">
          <mxGeometry width="50" height="50" relative="1" as="geometry">
            <mxPoint x="-30" y="230" as="sourcePoint" />
            <mxPoint x="-70" y="270" as="targetPoint" />
            <Array as="points">
              <mxPoint x="-100" y="270" />
            </Array>
          </mxGeometry>
        </mxCell>
        <mxCell id="Dja3WeZD6JRYeBqH-6Vj-11" value="&lt;font style=&quot;font-size: 12px;&quot;&gt;1.1.1.3:&lt;br&gt;addStop(stop,id)&lt;/font&gt;" style="text;html=1;align=center;verticalAlign=middle;whiteSpace=wrap;rounded=0;" parent="1" vertex="1">
          <mxGeometry x="-120" y="234" width="100" height="30" as="geometry" />
        </mxCell>
        <mxCell id="Dja3WeZD6JRYeBqH-6Vj-18" value="" style="endArrow=open;html=1;rounded=0;horizontal=1;dashed=1;dashPattern=8 8;endFill=0;" parent="1" edge="1">
          <mxGeometry width="50" height="50" relative="1" as="geometry">
            <mxPoint x="180" y="358" as="sourcePoint" />
            <mxPoint x="8" y="357" as="targetPoint" />
            <Array as="points">
              <mxPoint x="180" y="358" />
            </Array>
          </mxGeometry>
        </mxCell>
        <mxCell id="Dja3WeZD6JRYeBqH-6Vj-20" value="" style="endArrow=classic;html=1;rounded=0;" parent="1" edge="1">
          <mxGeometry width="50" height="50" relative="1" as="geometry">
            <mxPoint x="190" y="297.0000000000001" as="sourcePoint" />
            <mxPoint x="455" y="297" as="targetPoint" />
            <Array as="points">
              <mxPoint x="401" y="297" />
            </Array>
          </mxGeometry>
        </mxCell>
        <mxCell id="Dja3WeZD6JRYeBqH-6Vj-21" value="&lt;font style=&quot;font-size: 11px;&quot;&gt;1.1.1.3.1:new(id, deliveryId, destination, arriveTime)&lt;/font&gt;" style="text;html=1;align=center;verticalAlign=middle;whiteSpace=wrap;rounded=0;" parent="1" vertex="1">
          <mxGeometry x="189.25" y="272" width="260" height="27" as="geometry" />
        </mxCell>
        <mxCell id="Dja3WeZD6JRYeBqH-6Vj-22" value="return (massage)" style="text;html=1;align=center;verticalAlign=middle;whiteSpace=wrap;rounded=0;" parent="1" vertex="1">
          <mxGeometry x="-515" y="800" width="115" height="30" as="geometry" />
        </mxCell>
        <mxCell id="Dja3WeZD6JRYeBqH-6Vj-30" value="&lt;font style=&quot;font-size: 10px;&quot;&gt;[delivery != null]&lt;/font&gt;" style="text;html=1;align=center;verticalAlign=middle;resizable=0;points=[];autosize=1;" parent="1" vertex="1">
          <mxGeometry x="-209" y="160" width="90" height="30" as="geometry" />
        </mxCell>
        <mxCell id="Dja3WeZD6JRYeBqH-6Vj-34" value="return(stop)" style="text;html=1;align=center;verticalAlign=middle;whiteSpace=wrap;rounded=0;" parent="1" vertex="1">
          <mxGeometry x="56" y="331" width="150.5" height="30" as="geometry" />
        </mxCell>
        <mxCell id="3" value="1: addStopToDelivery(deliveryId, address)" style="html=1;verticalAlign=bottom;startArrow=oval;endArrow=block;startSize=8;edgeStyle=elbowEdgeStyle;elbow=vertical;curved=0;rounded=0;" parent="1" source="aM9ryv3xv72pqoxQDRHE-1" target="aM9ryv3xv72pqoxQDRHE-6" edge="1">
          <mxGeometry x="0.0211" relative="1" as="geometry">
            <mxPoint x="-797.2407407407406" y="100" as="sourcePoint" />
            <Array as="points">
              <mxPoint x="-660" y="100" />
              <mxPoint x="-640" y="90" />
              <mxPoint x="110" y="90" />
              <mxPoint x="50" y="90" />
              <mxPoint x="160" y="110" />
              <mxPoint x="130" y="130" />
            </Array>
            <mxPoint as="offset" />
            <mxPoint x="-568" y="100" as="targetPoint" />
          </mxGeometry>
        </mxCell>
        <mxCell id="4" value="1.1: addStopToDelivery(deliveryId, address)" style="html=1;verticalAlign=bottom;endArrow=block;edgeStyle=elbowEdgeStyle;elbow=vertical;curved=0;rounded=0;" parent="1" source="aM9ryv3xv72pqoxQDRHE-6" target="i9NzCaEgUlGq0UPtWMC--26" edge="1">
          <mxGeometry x="0.0261" relative="1" as="geometry">
            <mxPoint x="-558" y="110" as="sourcePoint" />
            <Array as="points">
              <mxPoint x="-490" y="110" />
              <mxPoint x="-470" y="160" />
              <mxPoint x="260" y="120" />
              <mxPoint x="180" y="170" />
              <mxPoint x="250" y="110" />
            </Array>
            <mxPoint as="offset" />
            <mxPoint x="-328" y="110" as="targetPoint" />
          </mxGeometry>
        </mxCell>
        <mxCell id="5" value="1.1.1: addStopToDelivery(deliveryId, address)" style="html=1;verticalAlign=bottom;endArrow=block;edgeStyle=elbowEdgeStyle;elbow=vertical;curved=0;rounded=0;" parent="1" source="i9NzCaEgUlGq0UPtWMC--26" edge="1">
          <mxGeometry x="0.0415" relative="1" as="geometry">
            <mxPoint x="-338" y="130" as="sourcePoint" />
            <Array as="points">
              <mxPoint x="-148" y="130" />
              <mxPoint x="-478" y="120" />
              <mxPoint x="-458" y="170" />
              <mxPoint x="272" y="130" />
              <mxPoint x="192" y="180" />
              <mxPoint x="262" y="120" />
            </Array>
            <mxPoint as="offset" />
            <mxPoint x="-123" y="130" as="targetPoint" />
          </mxGeometry>
        </mxCell>
        <mxCell id="12" value="&lt;b&gt;alt&lt;/b&gt;" style="rounded=0;whiteSpace=wrap;html=1;fontSize=11;" parent="1" vertex="1">
          <mxGeometry x="-250" y="165" width="50" height="20" as="geometry" />
        </mxCell>
        <mxCell id="13" value="&lt;font style=&quot;font-size: 11px;&quot;&gt;return (stop)&lt;/font&gt;" style="text;html=1;align=center;verticalAlign=middle;whiteSpace=wrap;rounded=0;" parent="1" vertex="1">
          <mxGeometry x="-12" y="225" width="132" height="30" as="geometry" />
        </mxCell>
        <mxCell id="i9NzCaEgUlGq0UPtWMC--30" value="" style="html=1;points=[];perimeter=orthogonalPerimeter;outlineConnect=0;targetShapes=umlLifeline;portConstraint=eastwest;newEdgeStyle={&quot;edgeStyle&quot;:&quot;elbowEdgeStyle&quot;,&quot;elbow&quot;:&quot;vertical&quot;,&quot;curved&quot;:0,&quot;rounded&quot;:0};" parent="1" vertex="1">
          <mxGeometry x="83" y="222" width="10" height="488" as="geometry" />
        </mxCell>
        <mxCell id="16" value="&lt;b&gt;alt&lt;/b&gt;" style="rounded=0;whiteSpace=wrap;html=1;fontSize=11;" parent="1" vertex="1">
          <mxGeometry x="-245" y="193" width="50" height="20" as="geometry" />
        </mxCell>
        <mxCell id="17" value="&lt;font style=&quot;font-size: 10px;&quot;&gt;[delivery.status = pending]&lt;/font&gt;" style="text;html=1;align=center;verticalAlign=middle;resizable=0;points=[];autosize=1;" parent="1" vertex="1">
          <mxGeometry x="-255" y="217" width="140" height="30" as="geometry" />
        </mxCell>
        <mxCell id="24" value="" style="edgeStyle=elbowEdgeStyle;elbow=vertical;endArrow=classic;html=1;rounded=0;" parent="1" source="26" target="26" edge="1">
          <mxGeometry width="50" height="50" relative="1" as="geometry">
            <mxPoint x="614" y="129.236875" as="sourcePoint" />
            <mxPoint x="614" y="149.236875" as="targetPoint" />
          </mxGeometry>
        </mxCell>
        <mxCell id="25" value="1.1.1.1: &lt;br&gt;getDelivery&lt;br&gt;(deliveryId)" style="text;html=1;align=center;verticalAlign=middle;whiteSpace=wrap;rounded=0;" parent="1" vertex="1">
          <mxGeometry x="-132" y="120" width="150" height="30" as="geometry" />
        </mxCell>
        <mxCell id="26" value="" style="html=1;points=[];perimeter=orthogonalPerimeter;outlineConnect=0;targetShapes=umlLifeline;portConstraint=eastwest;newEdgeStyle={&quot;edgeStyle&quot;:&quot;elbowEdgeStyle&quot;,&quot;elbow&quot;:&quot;vertical&quot;,&quot;curved&quot;:0,&quot;rounded&quot;:0};" parent="1" vertex="1">
          <mxGeometry x="-125" y="140" width="10" height="20" as="geometry" />
        </mxCell>
        <mxCell id="31" value="&lt;b&gt;alt&lt;/b&gt;" style="rounded=0;whiteSpace=wrap;html=1;fontSize=11;" parent="1" vertex="1">
          <mxGeometry x="-182" y="247" width="50" height="20" as="geometry" />
        </mxCell>
        <mxCell id="32" value="&lt;font style=&quot;font-size: 10px;&quot;&gt;[stop != null]&lt;/font&gt;" style="text;html=1;align=center;verticalAlign=middle;resizable=0;points=[];autosize=1;" parent="1" vertex="1">
          <mxGeometry x="-194" y="261" width="80" height="30" as="geometry" />
        </mxCell>
        <mxCell id="40" value="&lt;b&gt;alt&lt;/b&gt;" style="rounded=0;whiteSpace=wrap;html=1;fontSize=11;" parent="1" vertex="1">
          <mxGeometry x="47" y="250" width="33" height="17" as="geometry" />
        </mxCell>
        <mxCell id="41" value="&lt;font style=&quot;font-size: 10px;&quot;&gt;[stop meets conditions]&lt;/font&gt;" style="text;html=1;align=center;verticalAlign=middle;resizable=0;points=[];autosize=1;" parent="1" vertex="1">
          <mxGeometry x="230" y="243" width="130" height="30" as="geometry" />
        </mxCell>
        <mxCell id="42" value="" style="endArrow=open;html=1;rounded=0;horizontal=1;dashed=1;dashPattern=8 8;endFill=0;" parent="1" source="i9NzCaEgUlGq0UPtWMC--35" target="i9NzCaEgUlGq0UPtWMC--66" edge="1">
          <mxGeometry width="50" height="50" relative="1" as="geometry">
            <mxPoint x="190" y="350" as="sourcePoint" />
            <mxPoint x="-105" y="350" as="targetPoint" />
            <Array as="points">
              <mxPoint x="450" y="320" />
              <mxPoint x="380" y="320" />
            </Array>
          </mxGeometry>
        </mxCell>
        <mxCell id="43" value="return(s)" style="text;html=1;align=center;verticalAlign=middle;whiteSpace=wrap;rounded=0;" parent="1" vertex="1">
          <mxGeometry x="240" y="297" width="150.5" height="30" as="geometry" />
        </mxCell>
        <mxCell id="45" value="" style="edgeStyle=elbowEdgeStyle;elbow=vertical;endArrow=classic;html=1;rounded=0;" parent="1" source="47" target="47" edge="1">
          <mxGeometry width="50" height="50" relative="1" as="geometry">
            <mxPoint x="919" y="320.236875" as="sourcePoint" />
            <mxPoint x="919" y="340.236875" as="targetPoint" />
          </mxGeometry>
        </mxCell>
        <mxCell id="46" value="1.1.1.4: appendStop(s)" style="text;html=1;align=center;verticalAlign=middle;whiteSpace=wrap;rounded=0;" parent="1" vertex="1">
          <mxGeometry x="196" y="323" width="150" height="30" as="geometry" />
        </mxCell>
        <mxCell id="47" value="" style="html=1;points=[];perimeter=orthogonalPerimeter;outlineConnect=0;targetShapes=umlLifeline;portConstraint=eastwest;newEdgeStyle={&quot;edgeStyle&quot;:&quot;elbowEdgeStyle&quot;,&quot;elbow&quot;:&quot;vertical&quot;,&quot;curved&quot;:0,&quot;rounded&quot;:0};" parent="1" vertex="1">
          <mxGeometry x="180" y="331" width="10" height="20" as="geometry" />
        </mxCell>
        <mxCell id="48" value="&lt;font style=&quot;font-size: 10px;&quot;&gt;DALFacade&lt;/font&gt;" style="shape=umlLifeline;perimeter=lifelinePerimeter;whiteSpace=wrap;html=1;container=0;dropTarget=0;collapsible=0;recursiveResize=0;outlineConnect=0;portConstraint=eastwest;newEdgeStyle={&quot;edgeStyle&quot;:&quot;elbowEdgeStyle&quot;,&quot;elbow&quot;:&quot;vertical&quot;,&quot;curved&quot;:0,&quot;rounded&quot;:0};" parent="1" vertex="1">
          <mxGeometry x="500" y="40" width="70" height="840" as="geometry" />
        </mxCell>
        <mxCell id="50" value="" style="endArrow=none;dashed=1;html=1;dashPattern=1 3;strokeWidth=2;rounded=0;fontSize=11;entryX=1.001;entryY=0.884;entryDx=0;entryDy=0;entryPerimeter=0;" parent="1" target="39" edge="1">
          <mxGeometry width="50" height="50" relative="1" as="geometry">
            <mxPoint x="46" y="630" as="sourcePoint" />
            <mxPoint x="775" y="630" as="targetPoint" />
          </mxGeometry>
        </mxCell>
        <mxCell id="51" value="&lt;font style=&quot;font-size: 10px;&quot;&gt;[stop is like source but no stops in between them OR&lt;br&gt;first and last stops are the same address already OR &lt;br&gt;last stop is logistic center OR the stop is already in the list]&lt;/font&gt;" style="text;html=1;align=center;verticalAlign=middle;resizable=0;points=[];autosize=1;" parent="1" vertex="1">
          <mxGeometry x="210" y="622" width="280" height="60" as="geometry" />
        </mxCell>
        <mxCell id="58" value="1.1.1.4: insertStop(s)" style="html=1;verticalAlign=bottom;endArrow=block;edgeStyle=elbowEdgeStyle;elbow=vertical;curved=0;rounded=0;" parent="1" source="sYjVAv0Kg-goXXmKabMG-125" target="59" edge="1">
          <mxGeometry relative="1" as="geometry">
            <mxPoint x="-330" y="140" as="sourcePoint" />
            <Array as="points">
              <mxPoint x="240" y="380" />
              <mxPoint x="-70" y="420" />
              <mxPoint x="-138" y="140" />
              <mxPoint x="-468" y="130" />
              <mxPoint x="-448" y="180" />
              <mxPoint x="282" y="140" />
              <mxPoint x="202" y="190" />
              <mxPoint x="272" y="130" />
            </Array>
            <mxPoint as="offset" />
            <mxPoint x="-113" y="140" as="targetPoint" />
          </mxGeometry>
        </mxCell>
        <mxCell id="59" value="" style="html=1;points=[];perimeter=orthogonalPerimeter;outlineConnect=0;targetShapes=umlLifeline;portConstraint=eastwest;newEdgeStyle={&quot;edgeStyle&quot;:&quot;elbowEdgeStyle&quot;,&quot;elbow&quot;:&quot;vertical&quot;,&quot;curved&quot;:0,&quot;rounded&quot;:0};" parent="1" vertex="1">
          <mxGeometry x="530" y="380" width="10" height="80" as="geometry" />
        </mxCell>
        <mxCell id="60" value="1.1.1.4.1: addToMap(s.id,s)" style="html=1;verticalAlign=bottom;endArrow=block;edgeStyle=elbowEdgeStyle;elbow=vertical;curved=0;rounded=0;" parent="1" edge="1" target="Dja3WeZD6JRYeBqH-6Vj-6">
          <mxGeometry x="0.0087" relative="1" as="geometry">
            <mxPoint x="540" y="390" as="sourcePoint" />
            <Array as="points">
              <mxPoint x="580" y="390" />
              <mxPoint x="-60" y="430" />
              <mxPoint x="-128" y="150" />
              <mxPoint x="-458" y="140" />
              <mxPoint x="-438" y="190" />
              <mxPoint x="292" y="150" />
              <mxPoint x="212" y="200" />
              <mxPoint x="282" y="140" />
            </Array>
            <mxPoint as="offset" />
            <mxPoint x="770" y="390" as="targetPoint" />
          </mxGeometry>
        </mxCell>
        <mxCell id="61" value="" style="html=1;points=[];perimeter=orthogonalPerimeter;outlineConnect=0;targetShapes=umlLifeline;portConstraint=eastwest;newEdgeStyle={&quot;edgeStyle&quot;:&quot;elbowEdgeStyle&quot;,&quot;elbow&quot;:&quot;vertical&quot;,&quot;curved&quot;:0,&quot;rounded&quot;:0};" parent="1" vertex="1">
          <mxGeometry x="710" y="390" width="10" height="24" as="geometry" />
        </mxCell>
        <mxCell id="62" value="" style="endArrow=open;html=1;rounded=0;horizontal=1;dashed=1;dashPattern=8 8;endFill=0;" parent="1" edge="1" source="Dja3WeZD6JRYeBqH-6Vj-6">
          <mxGeometry width="50" height="50" relative="1" as="geometry">
            <mxPoint x="770" y="413" as="sourcePoint" />
            <mxPoint x="540" y="413" as="targetPoint" />
          </mxGeometry>
        </mxCell>
        <mxCell id="63" value="return" style="text;html=1;align=center;verticalAlign=middle;whiteSpace=wrap;rounded=0;" parent="1" vertex="1">
          <mxGeometry x="580" y="388.5" width="150.5" height="30" as="geometry" />
        </mxCell>
        <mxCell id="64" value="" style="endArrow=open;html=1;rounded=0;horizontal=1;dashed=1;dashPattern=8 8;endFill=0;" parent="1" edge="1">
          <mxGeometry width="50" height="50" relative="1" as="geometry">
            <mxPoint x="530" y="460" as="sourcePoint" />
            <mxPoint x="8" y="460" as="targetPoint" />
            <Array as="points">
              <mxPoint x="520" y="460" />
            </Array>
          </mxGeometry>
        </mxCell>
        <mxCell id="65" value="return" style="text;html=1;align=center;verticalAlign=middle;whiteSpace=wrap;rounded=0;" parent="1" vertex="1">
          <mxGeometry x="270" y="437" width="150.5" height="30" as="geometry" />
        </mxCell>
        <mxCell id="66" value="" style="endArrow=open;html=1;rounded=0;horizontal=1;dashed=1;dashPattern=8 8;endFill=0;" parent="1" edge="1">
          <mxGeometry width="50" height="50" relative="1" as="geometry">
            <mxPoint x="-53" y="670" as="sourcePoint" />
            <mxPoint x="-340" y="669" as="targetPoint" />
          </mxGeometry>
        </mxCell>
        <mxCell id="67" value="return(error)" style="text;html=1;align=center;verticalAlign=middle;whiteSpace=wrap;rounded=0;" parent="1" vertex="1">
          <mxGeometry x="-125" y="637" width="87.25" height="30" as="geometry" />
        </mxCell>
        <mxCell id="68" value="" style="endArrow=none;dashed=1;html=1;dashPattern=1 3;strokeWidth=2;rounded=0;fontSize=11;entryX=1;entryY=0.929;entryDx=0;entryDy=0;entryPerimeter=0;exitX=0.001;exitY=0.892;exitDx=0;exitDy=0;exitPerimeter=0;" parent="1" target="30" edge="1">
          <mxGeometry width="50" height="50" relative="1" as="geometry">
            <mxPoint x="-182.00700000000006" y="685.9159999999999" as="sourcePoint" />
            <mxPoint x="810" y="686.8619999999999" as="targetPoint" />
          </mxGeometry>
        </mxCell>
        <mxCell id="69" value="&lt;font style=&quot;font-size: 10px;&quot;&gt;[stop = null]&lt;/font&gt;" style="text;html=1;align=center;verticalAlign=middle;resizable=0;points=[];autosize=1;" parent="1" vertex="1">
          <mxGeometry x="-189" y="685" width="70" height="30" as="geometry" />
        </mxCell>
        <mxCell id="70" value="" style="endArrow=open;html=1;rounded=0;horizontal=1;dashed=1;dashPattern=8 8;endFill=0;" parent="1" edge="1">
          <mxGeometry width="50" height="50" relative="1" as="geometry">
            <mxPoint x="-70" y="711" as="sourcePoint" />
            <mxPoint x="-339.9999999999998" y="710" as="targetPoint" />
          </mxGeometry>
        </mxCell>
        <mxCell id="71" value="" style="endArrow=none;dashed=1;html=1;dashPattern=1 3;strokeWidth=2;rounded=0;fontSize=11;exitX=0;exitY=0.932;exitDx=0;exitDy=0;exitPerimeter=0;" parent="1" edge="1">
          <mxGeometry width="50" height="50" relative="1" as="geometry">
            <mxPoint x="-245" y="736.5799999999999" as="sourcePoint" />
            <mxPoint x="814" y="737" as="targetPoint" />
          </mxGeometry>
        </mxCell>
        <mxCell id="72" value="&lt;font style=&quot;font-size: 10px;&quot;&gt;[delivery.status !=&lt;br&gt;&amp;nbsp;pending]&lt;/font&gt;" style="text;html=1;align=center;verticalAlign=middle;resizable=0;points=[];autosize=1;" parent="1" vertex="1">
          <mxGeometry x="-122" y="731" width="100" height="40" as="geometry" />
        </mxCell>
        <mxCell id="73" value="return(error)" style="text;html=1;align=center;verticalAlign=middle;whiteSpace=wrap;rounded=0;" parent="1" vertex="1">
          <mxGeometry x="-156.5" y="679" width="150.5" height="30" as="geometry" />
        </mxCell>
        <mxCell id="74" value="return(error)" style="text;html=1;align=center;verticalAlign=middle;whiteSpace=wrap;rounded=0;" parent="1" vertex="1">
          <mxGeometry x="-259.25" y="734" width="150.5" height="30" as="geometry" />
        </mxCell>
        <mxCell id="76" value="&lt;font style=&quot;font-size: 10px;&quot;&gt;[delivery = null]&lt;/font&gt;" style="text;html=1;align=center;verticalAlign=middle;resizable=0;points=[];autosize=1;" parent="1" vertex="1">
          <mxGeometry x="-262" y="766" width="90" height="30" as="geometry" />
        </mxCell>
        <mxCell id="77" value="" style="endArrow=none;dashed=1;html=1;dashPattern=1 3;strokeWidth=2;rounded=0;fontSize=11;exitX=0;exitY=0.858;exitDx=0;exitDy=0;exitPerimeter=0;" parent="1" edge="1">
          <mxGeometry width="50" height="50" relative="1" as="geometry">
            <mxPoint x="-251" y="773.0899999999999" as="sourcePoint" />
            <mxPoint x="819" y="773" as="targetPoint" />
          </mxGeometry>
        </mxCell>
        <mxCell id="78" value="return(error)" style="text;html=1;align=center;verticalAlign=middle;whiteSpace=wrap;rounded=0;" parent="1" vertex="1">
          <mxGeometry x="-258" y="779" width="150.5" height="30" as="geometry" />
        </mxCell>
        <mxCell id="79" value="" style="endArrow=open;html=1;rounded=0;horizontal=1;dashed=1;dashPattern=8 8;endFill=0;" parent="1" edge="1">
          <mxGeometry width="50" height="50" relative="1" as="geometry">
            <mxPoint x="-125" y="802" as="sourcePoint" />
            <mxPoint x="-340" y="802" as="targetPoint" />
            <Array as="points">
              <mxPoint x="-175" y="802" />
              <mxPoint x="-225" y="802" />
            </Array>
          </mxGeometry>
        </mxCell>
        <mxCell id="80" value="1.1.1.4.2: &lt;br&gt;insert(id,delivId,destination,&lt;br&gt;status,time)" style="html=1;verticalAlign=bottom;endArrow=block;edgeStyle=elbowEdgeStyle;elbow=vertical;curved=0;rounded=0;" parent="1" edge="1" target="81">
          <mxGeometry x="0.0588" y="-25" relative="1" as="geometry">
            <mxPoint x="540" y="434.5" as="sourcePoint" />
            <Array as="points">
              <mxPoint x="580" y="434.5" />
              <mxPoint x="-60" y="474.5" />
              <mxPoint x="-128" y="194.5" />
              <mxPoint x="-458" y="184.5" />
              <mxPoint x="-438" y="234.5" />
              <mxPoint x="292" y="194.5" />
              <mxPoint x="212" y="244.5" />
              <mxPoint x="282" y="184.5" />
            </Array>
            <mxPoint y="1" as="offset" />
            <mxPoint x="770" y="434.5" as="targetPoint" />
          </mxGeometry>
        </mxCell>
        <mxCell id="81" value="" style="html=1;points=[];perimeter=orthogonalPerimeter;outlineConnect=0;targetShapes=umlLifeline;portConstraint=eastwest;newEdgeStyle={&quot;edgeStyle&quot;:&quot;elbowEdgeStyle&quot;,&quot;elbow&quot;:&quot;vertical&quot;,&quot;curved&quot;:0,&quot;rounded&quot;:0};" parent="1" vertex="1">
          <mxGeometry x="710" y="434.5" width="10" height="30" as="geometry" />
        </mxCell>
        <mxCell id="82" value="" style="endArrow=open;html=1;rounded=0;horizontal=1;dashed=1;dashPattern=8 8;endFill=0;" parent="1" source="81" edge="1">
          <mxGeometry width="50" height="50" relative="1" as="geometry">
            <mxPoint x="498.5" y="375.5" as="sourcePoint" />
            <mxPoint x="540" y="459.5" as="targetPoint" />
            <Array as="points">
              <mxPoint x="650" y="459.5" />
            </Array>
          </mxGeometry>
        </mxCell>
        <mxCell id="83" value="return" style="text;html=1;align=center;verticalAlign=middle;whiteSpace=wrap;rounded=0;" parent="1" vertex="1">
          <mxGeometry x="559.5" y="451" width="150.5" height="30" as="geometry" />
        </mxCell>
        <mxCell id="84" value="Counters&lt;br&gt;DAO" style="shape=umlLifeline;perimeter=lifelinePerimeter;whiteSpace=wrap;html=1;container=0;dropTarget=0;collapsible=0;recursiveResize=0;outlineConnect=0;portConstraint=eastwest;newEdgeStyle={&quot;edgeStyle&quot;:&quot;elbowEdgeStyle&quot;,&quot;elbow&quot;:&quot;vertical&quot;,&quot;curved&quot;:0,&quot;rounded&quot;:0};" parent="1" vertex="1">
          <mxGeometry x="752" y="40" width="72.25" height="840" as="geometry" />
        </mxCell>
        <mxCell id="86" value="" style="html=1;points=[];perimeter=orthogonalPerimeter;outlineConnect=0;targetShapes=umlLifeline;portConstraint=eastwest;newEdgeStyle={&quot;edgeStyle&quot;:&quot;elbowEdgeStyle&quot;,&quot;elbow&quot;:&quot;vertical&quot;,&quot;curved&quot;:0,&quot;rounded&quot;:0};" parent="84" vertex="1">
          <mxGeometry x="31.129999999999995" y="469.5" width="10" height="18" as="geometry" />
        </mxCell>
        <mxCell id="90" value="" style="html=1;points=[];perimeter=orthogonalPerimeter;outlineConnect=0;targetShapes=umlLifeline;portConstraint=eastwest;newEdgeStyle={&quot;edgeStyle&quot;:&quot;elbowEdgeStyle&quot;,&quot;elbow&quot;:&quot;vertical&quot;,&quot;curved&quot;:0,&quot;rounded&quot;:0};" parent="84" vertex="1">
          <mxGeometry x="31.130000000000003" y="517" width="11" height="18" as="geometry" />
        </mxCell>
        <mxCell id="85" value="&lt;span style=&quot;background-color: rgb(248, 249, 250);&quot;&gt;1.1.1.5.1:&lt;br&gt;&lt;/span&gt;updateMap(counterName,val)" style="html=1;verticalAlign=bottom;endArrow=block;edgeStyle=elbowEdgeStyle;elbow=vertical;curved=0;rounded=0;" parent="1" edge="1" target="86">
          <mxGeometry x="-0.0163" relative="1" as="geometry">
            <mxPoint x="540" y="510.5" as="sourcePoint" />
            <Array as="points">
              <mxPoint x="780" y="511" />
              <mxPoint x="822.5" y="496.5" />
              <mxPoint x="403.5" y="536.5" />
              <mxPoint x="163.5" y="486.5" />
              <mxPoint x="183.5" y="536.5" />
              <mxPoint x="913.5" y="496.5" />
              <mxPoint x="833.5" y="546.5" />
              <mxPoint x="903.5" y="486.5" />
            </Array>
            <mxPoint as="offset" />
            <mxPoint x="872.75" y="510.5" as="targetPoint" />
          </mxGeometry>
        </mxCell>
        <mxCell id="87" value="" style="endArrow=open;html=1;rounded=0;horizontal=1;dashed=1;dashPattern=8 8;endFill=0;" parent="1" edge="1" source="86">
          <mxGeometry width="197" height="580" relative="1" as="geometry">
            <mxPoint x="872.75" y="527.5" as="sourcePoint" />
            <mxPoint x="539.9999999999998" y="527.5" as="targetPoint" />
          </mxGeometry>
        </mxCell>
        <mxCell id="88" value="&lt;font style=&quot;font-size: 11px;&quot;&gt;return&lt;/font&gt;" style="text;html=1;align=center;verticalAlign=middle;whiteSpace=wrap;rounded=0;" parent="87" vertex="1">
          <mxGeometry x="670.5" y="503.5" width="60" height="30" as="geometry" />
        </mxCell>
        <mxCell id="89" value="&lt;span style=&quot;background-color: rgb(248, 249, 250);&quot;&gt;1.1.1.5.2:&lt;br&gt;&lt;/span&gt;addToMap(id,itemDelivery)" style="html=1;verticalAlign=bottom;endArrow=block;edgeStyle=elbowEdgeStyle;elbow=vertical;curved=0;rounded=0;" parent="1" edge="1" target="90">
          <mxGeometry x="-0.0383" relative="1" as="geometry">
            <mxPoint x="540" y="558.4999999999998" as="sourcePoint" />
            <Array as="points">
              <mxPoint x="822.5" y="558.5" />
              <mxPoint x="403.5" y="598.5" />
              <mxPoint x="163.5" y="548.5" />
              <mxPoint x="183.5" y="598.5" />
              <mxPoint x="913.5" y="558.5" />
              <mxPoint x="833.5" y="608.5" />
              <mxPoint x="903.5" y="548.5" />
            </Array>
            <mxPoint as="offset" />
            <mxPoint x="872.75" y="558.5" as="targetPoint" />
          </mxGeometry>
        </mxCell>
        <mxCell id="92" value="" style="endArrow=open;html=1;rounded=0;horizontal=1;dashed=1;dashPattern=8 8;endFill=0;" parent="1" edge="1">
          <mxGeometry width="50" height="50" relative="1" as="geometry">
            <mxPoint x="-125" y="759" as="sourcePoint" />
            <mxPoint x="-340" y="759" as="targetPoint" />
            <Array as="points">
              <mxPoint x="-175" y="759" />
              <mxPoint x="-225" y="759" />
            </Array>
          </mxGeometry>
        </mxCell>
        <mxCell id="94" value="1.1.1.5: updateCounter(&quot;nextStopId&quot;, nextStopId)" style="html=1;verticalAlign=bottom;endArrow=block;edgeStyle=elbowEdgeStyle;elbow=vertical;curved=0;rounded=0;" parent="1" target="95" edge="1" source="sYjVAv0Kg-goXXmKabMG-132">
          <mxGeometry x="-0.0969" relative="1" as="geometry">
            <mxPoint x="-115" y="500" as="sourcePoint" />
            <Array as="points">
              <mxPoint x="400" y="500" />
              <mxPoint x="-70" y="540" />
              <mxPoint x="-138" y="260" />
              <mxPoint x="-468" y="250" />
              <mxPoint x="-448" y="300" />
              <mxPoint x="282" y="260" />
              <mxPoint x="202" y="310" />
              <mxPoint x="272" y="250" />
            </Array>
            <mxPoint as="offset" />
            <mxPoint x="-113" y="260" as="targetPoint" />
          </mxGeometry>
        </mxCell>
        <mxCell id="95" value="" style="html=1;points=[];perimeter=orthogonalPerimeter;outlineConnect=0;targetShapes=umlLifeline;portConstraint=eastwest;newEdgeStyle={&quot;edgeStyle&quot;:&quot;elbowEdgeStyle&quot;,&quot;elbow&quot;:&quot;vertical&quot;,&quot;curved&quot;:0,&quot;rounded&quot;:0};" parent="1" vertex="1">
          <mxGeometry x="530" y="500" width="10" height="80" as="geometry" />
        </mxCell>
        <mxCell id="96" value="" style="endArrow=open;html=1;rounded=0;horizontal=1;dashed=1;dashPattern=8 8;endFill=0;" parent="1" edge="1">
          <mxGeometry width="50" height="50" relative="1" as="geometry">
            <mxPoint x="530" y="580" as="sourcePoint" />
            <mxPoint x="6" y="581" as="targetPoint" />
            <Array as="points">
              <mxPoint x="520" y="580" />
            </Array>
          </mxGeometry>
        </mxCell>
        <mxCell id="97" value="return" style="text;html=1;align=center;verticalAlign=middle;whiteSpace=wrap;rounded=0;" parent="1" vertex="1">
          <mxGeometry x="270" y="557" width="150.5" height="30" as="geometry" />
        </mxCell>
        <mxCell id="100" value="" style="endArrow=open;html=1;rounded=0;horizontal=1;dashed=1;dashPattern=8 8;endFill=0;" parent="1" edge="1" source="90">
          <mxGeometry width="197" height="580" relative="1" as="geometry">
            <mxPoint x="871.75" y="576.5" as="sourcePoint" />
            <mxPoint x="539" y="576.5" as="targetPoint" />
          </mxGeometry>
        </mxCell>
        <mxCell id="101" value="&lt;font style=&quot;font-size: 11px;&quot;&gt;return&lt;/font&gt;" style="text;html=1;align=center;verticalAlign=middle;whiteSpace=wrap;rounded=0;" parent="100" vertex="1">
          <mxGeometry x="670.5" y="551" width="60" height="30" as="geometry" />
        </mxCell>
        <mxCell id="103" value="return" style="text;html=1;align=center;verticalAlign=middle;whiteSpace=wrap;rounded=0;" parent="1" vertex="1">
          <mxGeometry x="-360" y="592" width="150.5" height="30" as="geometry" />
        </mxCell>
        <mxCell id="sYjVAv0Kg-goXXmKabMG-103" value="&lt;b&gt;&lt;u&gt;Add stop to delivery sequence diagram part 1&lt;/u&gt;&lt;/b&gt;" style="text;html=1;strokeColor=none;fillColor=none;align=center;verticalAlign=middle;whiteSpace=wrap;rounded=0;" vertex="1" parent="1">
          <mxGeometry x="-550" y="10" width="200" height="30" as="geometry" />
        </mxCell>
        <mxCell id="sYjVAv0Kg-goXXmKabMG-104" value="&lt;b&gt;&lt;u&gt;Add stop to delivery sequence diagram part 2&lt;/u&gt;&lt;/b&gt;" style="text;html=1;strokeColor=none;fillColor=none;align=center;verticalAlign=middle;whiteSpace=wrap;rounded=0;" vertex="1" parent="1">
          <mxGeometry x="260" y="10" width="200" height="30" as="geometry" />
        </mxCell>
        <mxCell id="sYjVAv0Kg-goXXmKabMG-105" value="&lt;font style=&quot;font-size: 10px;&quot;&gt;[delivery != null]&lt;/font&gt;" style="text;html=1;align=center;verticalAlign=middle;resizable=0;points=[];autosize=1;" vertex="1" parent="1">
          <mxGeometry x="210" y="165" width="90" height="30" as="geometry" />
        </mxCell>
        <mxCell id="sYjVAv0Kg-goXXmKabMG-106" value="&lt;font style=&quot;font-size: 10px;&quot;&gt;[stop !=&lt;br&gt;&amp;nbsp;null]&lt;/font&gt;" style="text;html=1;align=center;verticalAlign=middle;resizable=0;points=[];autosize=1;" vertex="1" parent="1">
          <mxGeometry x="-4" y="243" width="60" height="40" as="geometry" />
        </mxCell>
        <mxCell id="sYjVAv0Kg-goXXmKabMG-107" value="Resource&lt;br style=&quot;font-size: 9px;&quot;&gt;Controller" style="rounded=0;whiteSpace=wrap;html=1;fontSize=9;" vertex="1" parent="1">
          <mxGeometry x="-69" y="209" width="50" height="24" as="geometry" />
        </mxCell>
        <mxCell id="sYjVAv0Kg-goXXmKabMG-108" value="" style="endArrow=classic;html=1;rounded=0;" edge="1" parent="1" source="sYjVAv0Kg-goXXmKabMG-110">
          <mxGeometry width="50" height="50" relative="1" as="geometry">
            <mxPoint x="36" y="222" as="sourcePoint" />
            <mxPoint x="83" y="222" as="targetPoint" />
            <Array as="points">
              <mxPoint x="63" y="222" />
            </Array>
          </mxGeometry>
        </mxCell>
        <mxCell id="sYjVAv0Kg-goXXmKabMG-109" value="&lt;font style=&quot;font-size: 11px;&quot;&gt;1.1.1.2:&lt;br&gt;&lt;/font&gt;" style="text;html=1;align=center;verticalAlign=middle;whiteSpace=wrap;rounded=0;" vertex="1" parent="1">
          <mxGeometry x="47" y="193" width="45" height="25" as="geometry" />
        </mxCell>
        <mxCell id="sYjVAv0Kg-goXXmKabMG-111" value="" style="endArrow=classic;html=1;rounded=0;" edge="1" parent="1" target="sYjVAv0Kg-goXXmKabMG-110">
          <mxGeometry width="50" height="50" relative="1" as="geometry">
            <mxPoint x="36" y="222" as="sourcePoint" />
            <mxPoint x="83" y="222" as="targetPoint" />
            <Array as="points" />
          </mxGeometry>
        </mxCell>
        <mxCell id="sYjVAv0Kg-goXXmKabMG-110" value="Delivery&lt;br&gt;Controller" style="rounded=0;whiteSpace=wrap;html=1;fontSize=9;" vertex="1" parent="1">
          <mxGeometry x="3" y="209" width="50" height="24" as="geometry" />
        </mxCell>
        <mxCell id="sYjVAv0Kg-goXXmKabMG-113" value="Delivery" style="rounded=0;whiteSpace=wrap;html=1;fontSize=9;" vertex="1" parent="1">
          <mxGeometry x="-70" y="264" width="50" height="24" as="geometry" />
        </mxCell>
        <mxCell id="sYjVAv0Kg-goXXmKabMG-114" value="" style="endArrow=classic;html=1;rounded=0;startArrow=none;" edge="1" parent="1">
          <mxGeometry width="50" height="50" relative="1" as="geometry">
            <mxPoint x="147" y="270" as="sourcePoint" />
            <mxPoint x="180" y="270" as="targetPoint" />
            <Array as="points" />
          </mxGeometry>
        </mxCell>
        <mxCell id="sYjVAv0Kg-goXXmKabMG-115" value="&lt;font style=&quot;font-size: 12px;&quot;&gt;1.1.1.3:&lt;br&gt;&lt;/font&gt;" style="text;html=1;align=center;verticalAlign=middle;whiteSpace=wrap;rounded=0;" vertex="1" parent="1">
          <mxGeometry x="134" y="252" width="46" height="15" as="geometry" />
        </mxCell>
        <mxCell id="sYjVAv0Kg-goXXmKabMG-117" value="Delivery&lt;br&gt;Controller" style="rounded=0;whiteSpace=wrap;html=1;fontSize=9;" vertex="1" parent="1">
          <mxGeometry x="97" y="266" width="50" height="24" as="geometry" />
        </mxCell>
        <mxCell id="sYjVAv0Kg-goXXmKabMG-119" value="Delivery" style="rounded=0;whiteSpace=wrap;html=1;fontSize=9;" vertex="1" parent="1">
          <mxGeometry x="-58" y="341" width="50" height="24" as="geometry" />
        </mxCell>
        <mxCell id="sYjVAv0Kg-goXXmKabMG-120" value="" style="endArrow=open;html=1;rounded=0;horizontal=1;dashed=1;dashPattern=8 8;endFill=0;" edge="1" parent="1">
          <mxGeometry width="50" height="50" relative="1" as="geometry">
            <mxPoint x="-58" y="354" as="sourcePoint" />
            <mxPoint x="-114" y="352.5" as="targetPoint" />
            <Array as="points">
              <mxPoint x="-58" y="352" />
            </Array>
          </mxGeometry>
        </mxCell>
        <mxCell id="sYjVAv0Kg-goXXmKabMG-121" value="return(stop)" style="text;html=1;align=center;verticalAlign=middle;whiteSpace=wrap;rounded=0;" vertex="1" parent="1">
          <mxGeometry x="-155" y="319" width="150.5" height="30" as="geometry" />
        </mxCell>
        <mxCell id="sYjVAv0Kg-goXXmKabMG-122" value="Delivery" style="rounded=0;whiteSpace=wrap;html=1;fontSize=9;" vertex="1" parent="1">
          <mxGeometry x="-58" y="448" width="50" height="24" as="geometry" />
        </mxCell>
        <mxCell id="sYjVAv0Kg-goXXmKabMG-123" value="" style="endArrow=open;html=1;rounded=0;horizontal=1;dashed=1;dashPattern=8 8;endFill=0;" edge="1" parent="1">
          <mxGeometry width="50" height="50" relative="1" as="geometry">
            <mxPoint x="-80" y="459" as="sourcePoint" />
            <mxPoint x="-114" y="459.39" as="targetPoint" />
            <Array as="points">
              <mxPoint x="-60" y="459" />
            </Array>
          </mxGeometry>
        </mxCell>
        <mxCell id="sYjVAv0Kg-goXXmKabMG-124" value="return" style="text;html=1;align=center;verticalAlign=middle;whiteSpace=wrap;rounded=0;" vertex="1" parent="1">
          <mxGeometry x="-158.5" y="430" width="150.5" height="30" as="geometry" />
        </mxCell>
        <mxCell id="sYjVAv0Kg-goXXmKabMG-125" value="Delivery&lt;br&gt;Controller" style="rounded=0;whiteSpace=wrap;html=1;fontSize=9;" vertex="1" parent="1">
          <mxGeometry x="200" y="371" width="50" height="24" as="geometry" />
        </mxCell>
        <mxCell id="sYjVAv0Kg-goXXmKabMG-127" value="DALFacade" style="rounded=0;whiteSpace=wrap;html=1;fontSize=9;" vertex="1" parent="1">
          <mxGeometry x="-54" y="380" width="50" height="24" as="geometry" />
        </mxCell>
        <mxCell id="sYjVAv0Kg-goXXmKabMG-129" value="1.1.1.4: &lt;br&gt;insertStop(s)" style="html=1;verticalAlign=bottom;endArrow=block;edgeStyle=elbowEdgeStyle;elbow=vertical;curved=0;rounded=0;" edge="1" parent="1">
          <mxGeometry x="0.2533" y="-43" relative="1" as="geometry">
            <mxPoint x="-115" y="404" as="sourcePoint" />
            <Array as="points">
              <mxPoint x="-50" y="390" />
              <mxPoint x="-428.75" y="451" />
              <mxPoint x="-496.75" y="171" />
              <mxPoint x="-826.75" y="161" />
              <mxPoint x="-806.75" y="211" />
              <mxPoint x="-76.75" y="171" />
              <mxPoint x="-156.75" y="221" />
              <mxPoint x="-86.75" y="161" />
            </Array>
            <mxPoint as="offset" />
            <mxPoint x="-54.00000000000023" y="390" as="targetPoint" />
          </mxGeometry>
        </mxCell>
        <mxCell id="sYjVAv0Kg-goXXmKabMG-131" value="&lt;span style=&quot;color: rgb(0, 0, 0); font-family: Helvetica; font-size: 11px; font-style: normal; font-variant-ligatures: normal; font-variant-caps: normal; font-weight: 400; letter-spacing: normal; orphans: 2; text-align: center; text-indent: 0px; text-transform: none; widows: 2; word-spacing: 0px; -webkit-text-stroke-width: 0px; background-color: rgb(255, 255, 255); text-decoration-thickness: initial; text-decoration-style: initial; text-decoration-color: initial; float: none; display: inline !important;&quot;&gt;1.1.1.5: &lt;br&gt;updateCounter&lt;br&gt;(&quot;nextStopId&quot;, &lt;br&gt;nextStopId)&lt;/span&gt;" style="html=1;verticalAlign=bottom;endArrow=block;edgeStyle=elbowEdgeStyle;elbow=vertical;curved=0;rounded=0;" edge="1" parent="1" target="sYjVAv0Kg-goXXmKabMG-130">
          <mxGeometry x="0.3455" y="-64" relative="1" as="geometry">
            <mxPoint x="-115" y="500" as="sourcePoint" />
            <Array as="points" />
            <mxPoint as="offset" />
            <mxPoint x="530" y="500" as="targetPoint" />
          </mxGeometry>
        </mxCell>
        <mxCell id="sYjVAv0Kg-goXXmKabMG-130" value="DALFacade" style="rounded=0;whiteSpace=wrap;html=1;fontSize=9;" vertex="1" parent="1">
          <mxGeometry x="-60" y="485.5" width="50" height="24" as="geometry" />
        </mxCell>
        <mxCell id="sYjVAv0Kg-goXXmKabMG-132" value="Delivery&lt;br&gt;Controller" style="rounded=0;whiteSpace=wrap;html=1;fontSize=9;" vertex="1" parent="1">
          <mxGeometry x="206.5" y="485.5" width="50" height="24" as="geometry" />
        </mxCell>
        <mxCell id="sYjVAv0Kg-goXXmKabMG-137" value="Delivery" style="rounded=0;whiteSpace=wrap;html=1;fontSize=9;" vertex="1" parent="1">
          <mxGeometry x="-58" y="448" width="50" height="24" as="geometry" />
        </mxCell>
        <mxCell id="sYjVAv0Kg-goXXmKabMG-139" value="" style="endArrow=open;html=1;rounded=0;horizontal=1;dashed=1;dashPattern=8 8;endFill=0;" edge="1" parent="1">
          <mxGeometry width="50" height="50" relative="1" as="geometry">
            <mxPoint x="-80" y="580" as="sourcePoint" />
            <mxPoint x="-114" y="580.39" as="targetPoint" />
            <Array as="points">
              <mxPoint x="-60" y="580" />
            </Array>
          </mxGeometry>
        </mxCell>
        <mxCell id="sYjVAv0Kg-goXXmKabMG-140" value="DALFacade" style="rounded=0;whiteSpace=wrap;html=1;fontSize=9;" vertex="1" parent="1">
          <mxGeometry x="-58" y="569" width="50" height="24" as="geometry" />
        </mxCell>
        <mxCell id="sYjVAv0Kg-goXXmKabMG-141" value="return" style="text;html=1;align=center;verticalAlign=middle;whiteSpace=wrap;rounded=0;" vertex="1" parent="1">
          <mxGeometry x="-160" y="570" width="150.5" height="30" as="geometry" />
        </mxCell>
        <mxCell id="sYjVAv0Kg-goXXmKabMG-142" value="&lt;font style=&quot;font-size: 10px;&quot;&gt;[delivery.status !=&lt;br&gt;&amp;nbsp;pending]&lt;/font&gt;" style="text;html=1;align=center;verticalAlign=middle;resizable=0;points=[];autosize=1;" vertex="1" parent="1">
          <mxGeometry x="184" y="730" width="100" height="40" as="geometry" />
        </mxCell>
        <mxCell id="sYjVAv0Kg-goXXmKabMG-143" value="&lt;font style=&quot;font-size: 10px;&quot;&gt;[delivery = null]&lt;/font&gt;" style="text;html=1;align=center;verticalAlign=middle;resizable=0;points=[];autosize=1;" vertex="1" parent="1">
          <mxGeometry x="186.5" y="770" width="90" height="30" as="geometry" />
        </mxCell>
        <mxCell id="sYjVAv0Kg-goXXmKabMG-144" value="Delivery" style="rounded=0;whiteSpace=wrap;html=1;fontSize=9;" vertex="1" parent="1">
          <mxGeometry x="-67" y="658" width="50" height="24" as="geometry" />
        </mxCell>
        <mxCell id="sYjVAv0Kg-goXXmKabMG-145" value="Delivery" style="rounded=0;whiteSpace=wrap;html=1;fontSize=9;" vertex="1" parent="1">
          <mxGeometry x="-68" y="699" width="50" height="20" as="geometry" />
        </mxCell>
        <mxCell id="sYjVAv0Kg-goXXmKabMG-146" value="" style="endArrow=open;html=1;rounded=0;horizontal=1;dashed=1;dashPattern=8 8;endFill=0;" edge="1" parent="1">
          <mxGeometry width="50" height="50" relative="1" as="geometry">
            <mxPoint x="179.5" y="670.5" as="sourcePoint" />
            <mxPoint x="6" y="670" as="targetPoint" />
          </mxGeometry>
        </mxCell>
        <mxCell id="sYjVAv0Kg-goXXmKabMG-147" value="" style="endArrow=open;html=1;rounded=0;horizontal=1;dashed=1;dashPattern=8 8;endFill=0;" edge="1" parent="1">
          <mxGeometry width="50" height="50" relative="1" as="geometry">
            <mxPoint x="83.5" y="709.5" as="sourcePoint" />
            <mxPoint x="7" y="710" as="targetPoint" />
          </mxGeometry>
        </mxCell>
        <mxCell id="sYjVAv0Kg-goXXmKabMG-148" value="&lt;font style=&quot;font-size: 10px;&quot;&gt;[stop = null]&lt;/font&gt;" style="text;html=1;align=center;verticalAlign=middle;resizable=0;points=[];autosize=1;" vertex="1" parent="1">
          <mxGeometry x="196" y="682" width="70" height="30" as="geometry" />
        </mxCell>
      </root>
    </mxGraphModel>
  </diagram>
</mxfile>
